<svg width="46" height="64" viewBox="0 0 46 64" fill="none" xmlns="http://www.w3.org/2000/svg">
<path d="M37 32.6235H9.36364L9.36364 4.98717L37 4.98717V32.6235Z" fill="#1A1A1A"/>
<path d="M9.02 19.266V4.62603H23.66V19.266H9.02ZM9.92 18.366H12.44V5.52603H9.92V18.366ZM13.36 18.366H15.88V5.52603H13.36V18.366ZM16.78 18.366H19.3V5.52603H16.78V18.366ZM20.22 18.366H22.76V5.52603H20.22V18.366Z" fill="#F5F5F5"/>
<path d="M23.02 19.266V4.62603H37.66V19.266H23.02ZM23.92 18.366H26.44V5.52603H23.92V18.366ZM27.36 18.366H29.88V5.52603H27.36V18.366ZM30.78 18.366H33.3V5.52603H30.78V18.366ZM34.22 18.366H36.76V5.52603H34.22V18.366Z" fill="#F5F5F5"/>
<path d="M37 38.8096H9.36364L9.36364 11.1732L37 11.1732V38.8096Z" fill="#F5F5F5"/>
<path d="M37 51.6235H9.36364L9.36364 23.9872L37 23.9872V51.6235Z" fill="#F5F5F5"/>
<path d="M33.74 19.206H13.74V13.186L33.74 13.186V19.206ZM33 18.466V13.926L14.48 13.926V18.466H33Z" fill="#1A1A1A"/>
<path d="M9.02 58.266V43.626H23.66V58.266H9.02ZM9.92 57.366H12.44V44.526H9.92V57.366ZM13.36 57.366H15.88V44.526H13.36V57.366ZM16.78 57.366H19.3V44.526H16.78V57.366ZM20.22 57.366H22.76V44.526H20.22V57.366Z" fill="#1A1A1A"/>
<path d="M23.02 58.266V43.626H37.66V58.266H23.02ZM23.92 57.366H26.44V44.526H23.92V57.366ZM27.36 57.366H29.88V44.526H27.36V57.366ZM30.78 57.366H33.3V44.526H30.78V57.366ZM34.22 57.366H36.76V44.526H34.22V57.366Z" fill="#1A1A1A"/>
</svg>
