<svg width="46" height="57" viewBox="0 0 46 57" fill="none" xmlns="http://www.w3.org/2000/svg">
<path d="M13.5568 11.0853V56.5342H10.858V11.0853H13.5568Z" fill="#F5F5F5"/>
<path d="M35.5568 10.8993V56.3481H32.858V10.8993H35.5568Z" fill="#F5F5F5"/>
<path d="M37 32.6235H9.36364L9.36364 4.98717L37 4.98717V32.6235Z" fill="#1A1A1A"/>
<path d="M9.02 19.266V4.62603H23.66V19.266H9.02ZM9.92 18.366H12.44V5.52603H9.92V18.366ZM13.36 18.366H15.88V5.52603H13.36V18.366ZM16.78 18.366H19.3V5.52603H16.78V18.366ZM20.22 18.366H22.76V5.52603H20.22V18.366Z" fill="#F5F5F5"/>
<path d="M23.02 19.266V4.62603H37.66V19.266H23.02ZM23.92 18.366H26.44V5.52603H23.92V18.366ZM27.36 18.366H29.88V5.52603H27.36V18.366ZM30.78 18.366H33.3V5.52603H30.78V18.366ZM34.22 18.366H36.76V5.52603H34.22V18.366Z" fill="#F5F5F5"/>
<path d="M37 38.8096H9.36364L9.36364 11.1732L37 11.1732V38.8096Z" fill="#F5F5F5"/>
<path d="M37 51.6235H9.36364L9.36364 23.9872L37 23.9872V51.6235Z" fill="#F5F5F5"/>
<path d="M33.74 19.206H13.74V13.186L33.74 13.186V19.206ZM33 18.466V13.926L14.48 13.926V18.466H33Z" fill="#1A1A1A"/>
</svg>
