<svg width="48" height="61" viewBox="0 0 48 61" fill="none" xmlns="http://www.w3.org/2000/svg">
<path d="M3.875 37V22.4545H18.4205V37H3.875Z" fill="#1A1A1A"/>
<path d="M3.875 51V36.4545H18.4205V51H3.875Z" fill="#1A1A1A"/>
<path d="M17.875 38V23.4545H32.4205V38H17.875Z" fill="#1A1A1A"/>
<path d="M17.875 51V36.4545H32.4205V51H17.875Z" fill="#1A1A1A"/>
<path d="M29.875 37V22.4545H44.4205V37H29.875Z" fill="#1A1A1A"/>
<path d="M29.875 51V36.4545H44.4205V51H29.875Z" fill="#1A1A1A"/>
<path d="M2.04 52.16V22.88H31.32V52.16H2.04ZM3.84 50.36H8.88V24.68H3.84V50.36ZM10.72 50.36H15.76V24.68H10.72V50.36ZM17.56 50.36H22.6V24.68H17.56V50.36ZM24.44 50.36H29.52V24.68H24.44V50.36Z" fill="#F5F5F5"/>
<path d="M16.04 52.16V22.88H45.32V52.16H16.04ZM17.84 50.36H22.88V24.68H17.84V50.36ZM24.72 50.36H29.76V24.68H24.72V50.36ZM31.56 50.36H36.6V24.68H31.56V50.36ZM38.44 50.36H43.52V24.68H38.44V50.36Z" fill="#F5F5F5"/>
<path d="M2.04 39.16V9.88H31.32V39.16H2.04ZM3.84 37.36H8.88V11.68H3.84V37.36ZM10.72 37.36H15.76V11.68H10.72V37.36ZM17.56 37.36H22.6V11.68H17.56V37.36ZM24.44 37.36H29.52V11.68H24.44V37.36Z" fill="#F5F5F5"/>
<path d="M16.04 39.16V9.88H45.32V39.16H16.04ZM17.84 37.36H22.88V11.68H17.84V37.36ZM24.72 37.36H29.76V11.68H24.72V37.36ZM31.56 37.36H36.6V11.68H31.56V37.36ZM38.44 37.36H43.52V11.68H38.44V37.36Z" fill="#F5F5F5"/>
<path d="M2.875 25V10.4545H17.4205V25H2.875Z" fill="#F5F5F5"/>
<path d="M16.875 25V10.4545H31.4205V25H16.875Z" fill="#F5F5F5"/>
<path d="M29.875 25V10.4545H44.4205V25H29.875Z" fill="#F5F5F5"/>
</svg>
