<svg version="1.1" id="Layer_1" xmlns="http://www.w3.org/2000/svg" xmlns:xlink="http://www.w3.org/1999/xlink" x="0px" y="0px"
	 width="100%" viewBox="0 0 1000 1000" enable-background="new 0 0 1000 1000" xml:space="preserve">
<path fill="#000000" opacity="1.000000" stroke="none" 
	d="
M456.000000,1001.000000 
	C304.000000,1001.000000 152.500000,1001.000000 1.000000,1001.000000 
	C1.000000,667.666687 1.000000,334.333344 1.000000,1.000000 
	C334.333344,1.000000 667.666687,1.000000 1001.000000,1.000000 
	C1001.000000,334.333344 1001.000000,667.666687 1001.000000,1001.000000 
	C819.500000,1001.000000 638.000000,1001.000000 456.000000,1001.000000 
M430.000000,553.500000 
	C430.000000,384.408447 430.000000,215.316925 430.000000,46.286282 
	C360.694763,46.286282 291.957367,46.286282 223.282562,46.286282 
	C223.282562,344.639038 223.282562,642.705444 223.282562,940.717834 
	C399.633911,940.717834 575.702515,940.717834 751.715454,940.717834 
	C751.715454,867.031372 751.715454,793.627441 751.715454,719.826111 
	C644.360901,719.826111 537.290466,719.826111 430.000000,719.826111 
	C430.000000,664.452087 430.000000,609.476074 430.000000,553.500000 
z"/>
<path fill="#FFFFFF" opacity="1.000000" stroke="none" 
	d="
M430.000000,554.000000 
	C430.000000,609.476074 430.000000,664.452087 430.000000,719.826111 
	C537.290466,719.826111 644.360901,719.826111 751.715454,719.826111 
	C751.715454,793.627441 751.715454,867.031372 751.715454,940.717834 
	C575.702515,940.717834 399.633911,940.717834 223.282562,940.717834 
	C223.282562,642.705444 223.282562,344.639038 223.282562,46.286282 
	C291.957367,46.286282 360.694763,46.286282 430.000000,46.286282 
	C430.000000,215.316925 430.000000,384.408447 430.000000,554.000000 
z"/>
</svg>