<svg width="54" height="41" viewBox="0 0 54 41" fill="none" xmlns="http://www.w3.org/2000/svg">
<path d="M18.7216 29.3409C17.1733 29.3409 15.7173 29.0497 14.3537 28.4673C12.9972 27.8849 11.8004 27.0788 10.7635 26.049C9.73366 25.0121 8.92401 23.8153 8.33452 22.4588C7.75213 21.1023 7.46449 19.6463 7.47159 18.0909C7.47869 16.5355 7.77344 15.0795 8.35582 13.723C8.94531 12.3665 9.75497 11.1733 10.7848 10.1435C11.8146 9.10653 13.0078 8.29687 14.3643 7.71449C15.7209 7.1321 17.1733 6.84091 18.7216 6.84091C20.277 6.84091 21.733 7.1321 23.0895 7.71449C24.4531 8.29687 25.6463 9.10653 26.669 10.1435C27.6989 11.1733 28.505 12.3665 29.0874 13.723C29.6697 15.0795 29.9645 16.5355 29.9716 18.0909C29.9787 19.6463 29.6911 21.1023 29.1087 22.4588C28.5263 23.8153 27.7202 25.0121 26.6903 26.049C25.6605 27.0788 24.4638 27.8849 23.1001 28.4673C21.7365 29.0497 20.277 29.3409 18.7216 29.3409Z" fill="#F5F5F5"/>
<path d="M19.17 30.13C12.39 30.13 7.53 27.34 7.53 23.14C7.53 18.91 12.3 16.12 19.17 16.12C25.95 16.12 30.81 18.88 30.81 23.14C30.81 27.01 25.38 30.13 19.17 30.13Z" fill="#F5F5F5"/>
<path d="M30.7216 29.3409C29.1733 29.3409 27.7173 29.0497 26.3537 28.4673C24.9972 27.8849 23.8004 27.0788 22.7635 26.049C21.7337 25.0121 20.924 23.8153 20.3345 22.4588C19.7521 21.1023 19.4645 19.6463 19.4716 18.0909C19.4787 16.5355 19.7734 15.0795 20.3558 13.723C20.9453 12.3665 21.755 11.1733 22.7848 10.1435C23.8146 9.10653 25.0078 8.29687 26.3643 7.71449C27.7209 7.1321 29.1733 6.84091 30.7216 6.84091C32.277 6.84091 33.733 7.1321 35.0895 7.71449C36.4531 8.29687 37.6463 9.10653 38.669 10.1435C39.6989 11.1733 40.505 12.3665 41.0874 13.723C41.6697 15.0795 41.9645 16.5355 41.9716 18.0909C41.9787 19.6463 41.6911 21.1023 41.1087 22.4588C40.5263 23.8153 39.7202 25.0121 38.6903 26.049C37.6605 27.0788 36.4638 27.8849 35.1001 28.4673C33.7365 29.0497 32.277 29.3409 30.7216 29.3409Z" fill="#F5F5F5"/>
<path d="M31.17 30.13C24.39 30.13 19.53 27.34 19.53 23.14C19.53 18.91 24.3 16.12 31.17 16.12C37.95 16.12 42.81 18.88 42.81 23.14C42.81 27.01 37.38 30.13 31.17 30.13Z" fill="#F5F5F5"/>
<path d="M39.1477 28.2273C38.1155 28.2273 37.1449 28.0331 36.2358 27.6449C35.3314 27.2566 34.5336 26.7192 33.8423 26.0327C33.1558 25.3414 32.616 24.5436 32.223 23.6392C31.8348 22.7348 31.643 21.7642 31.6477 20.7273C31.6525 19.6903 31.849 18.7197 32.2372 17.8153C32.6302 16.911 33.17 16.1155 33.8565 15.429C34.5431 14.7377 35.3385 14.1979 36.2429 13.8097C37.1473 13.4214 38.1155 13.2273 39.1477 13.2273C40.1847 13.2273 41.1553 13.4214 42.0597 13.8097C42.9688 14.1979 43.7642 14.7377 44.446 15.429C45.1326 16.1155 45.67 16.911 46.0582 17.8153C46.4465 18.7197 46.643 19.6903 46.6477 20.7273C46.6525 21.7642 46.4607 22.7348 46.0724 23.6392C45.6842 24.5436 45.1468 25.3414 44.4602 26.0327C43.7737 26.7192 42.9759 27.2566 42.0668 27.6449C41.1577 28.0331 40.1847 28.2273 39.1477 28.2273Z" fill="#F5F5F5"/>
<path d="M39.78 30.42C35.26 30.42 32.02 28.56 32.02 25.76C32.02 22.94 35.2 21.08 39.78 21.08C44.3 21.08 47.54 22.92 47.54 25.76C47.54 28.34 43.92 30.42 39.78 30.42Z" fill="#F5F5F5"/>
<path d="M6.8608 29.1705C6.08665 29.1705 5.35866 29.0249 4.67685 28.7337C3.99858 28.4425 3.40021 28.0394 2.88175 27.5245C2.36683 27.006 1.962 26.4077 1.66726 25.7294C1.37607 25.0511 1.23224 24.3232 1.2358 23.5455C1.23935 22.7678 1.38672 22.0398 1.67791 21.3615C1.97266 20.6832 2.37749 20.0866 2.8924 19.5717C3.40732 19.0533 4.00391 18.6484 4.68217 18.3572C5.36044 18.0661 6.08665 17.9205 6.8608 17.9205C7.63849 17.9205 8.36648 18.0661 9.04474 18.3572C9.72656 18.6484 10.3232 19.0533 10.8345 19.5717C11.3494 20.0866 11.7525 20.6832 12.0437 21.3615C12.3349 22.0398 12.4822 22.7678 12.4858 23.5455C12.4893 24.3232 12.3455 25.0511 12.0543 25.7294C11.7631 26.4077 11.3601 27.006 10.8452 27.5245C10.3303 28.0394 9.73189 28.4425 9.05007 28.7337C8.36825 29.0249 7.63849 29.1705 6.8608 29.1705Z" fill="#F5F5F5"/>
<path d="M6.585 30.065C3.195 30.065 0.765 28.67 0.765 26.57C0.765 24.455 3.15 23.06 6.585 23.06C9.975 23.06 12.405 24.44 12.405 26.57C12.405 28.505 9.69 30.065 6.585 30.065Z" fill="#F5F5F5"/>
<path d="M46.8608 29.1705C46.0866 29.1705 45.3587 29.0249 44.6768 28.7337C43.9986 28.4425 43.4002 28.0394 42.8817 27.5245C42.3668 27.006 41.962 26.4077 41.6673 25.7294C41.3761 25.0511 41.2322 24.3232 41.2358 23.5455C41.2393 22.7678 41.3867 22.0398 41.6779 21.3615C41.9727 20.6832 42.3775 20.0866 42.8924 19.5717C43.4073 19.0533 44.0039 18.6484 44.6822 18.3572C45.3604 18.0661 46.0866 17.9205 46.8608 17.9205C47.6385 17.9205 48.3665 18.0661 49.0447 18.3572C49.7266 18.6484 50.3232 19.0533 50.8345 19.5717C51.3494 20.0866 51.7525 20.6832 52.0437 21.3615C52.3349 22.0398 52.4822 22.7678 52.4858 23.5455C52.4893 24.3232 52.3455 25.0511 52.0543 25.7294C51.7631 26.4077 51.3601 27.006 50.8452 27.5245C50.3303 28.0394 49.7319 28.4425 49.0501 28.7337C48.3683 29.0249 47.6385 29.1705 46.8608 29.1705Z" fill="#F5F5F5"/>
<path d="M46.585 30.065C43.195 30.065 40.765 28.67 40.765 26.57C40.765 24.455 43.15 23.06 46.585 23.06C49.975 23.06 52.405 24.44 52.405 26.57C52.405 28.505 49.69 30.065 46.585 30.065Z" fill="#F5F5F5"/>
<path d="M16.8864 11.9545L15.2273 13.6136L13.5455 11.9545L15.2273 10.2727L16.8864 11.9545ZM19.0227 14.0909L17.3636 15.7727L15.7045 14.0909L17.3636 12.4318L19.0227 14.0909ZM14.75 14.0909L13.0682 15.7727L11.3864 14.0909L13.0682 12.4318L14.75 14.0909ZM16.8864 16.25L15.2273 17.9091L13.5455 16.25L15.2273 14.5682L16.8864 16.25Z" fill="black"/>
<path d="M33.8864 20.9545L32.2273 22.6136L30.5455 20.9545L32.2273 19.2727L33.8864 20.9545ZM36.0227 23.0909L34.3636 24.7727L32.7045 23.0909L34.3636 21.4318L36.0227 23.0909ZM31.75 23.0909L30.0682 24.7727L28.3864 23.0909L30.0682 21.4318L31.75 23.0909ZM33.8864 25.25L32.2273 26.9091L30.5455 25.25L32.2273 23.5682L33.8864 25.25Z" fill="black"/>
<path d="M27.9432 11.4773L27.1136 12.3068L26.2727 11.4773L27.1136 10.6364L27.9432 11.4773ZM29.0114 12.5455L28.1818 13.3864L27.3523 12.5455L28.1818 11.7159L29.0114 12.5455ZM26.875 12.5455L26.0341 13.3864L25.1932 12.5455L26.0341 11.7159L26.875 12.5455ZM27.9432 13.625L27.1136 14.4545L26.2727 13.625L27.1136 12.7841L27.9432 13.625Z" fill="black"/>
<path d="M45.9432 23.4773L45.1136 24.3068L44.2727 23.4773L45.1136 22.6364L45.9432 23.4773ZM47.0114 24.5455L46.1818 25.3864L45.3523 24.5455L46.1818 23.7159L47.0114 24.5455ZM44.875 24.5455L44.0341 25.3864L43.1932 24.5455L44.0341 23.7159L44.875 24.5455ZM45.9432 25.625L45.1136 26.4545L44.2727 25.625L45.1136 24.7841L45.9432 25.625Z" fill="black"/>
<path d="M6.94318 21.4773L6.11364 22.3068L5.27273 21.4773L6.11364 20.6364L6.94318 21.4773ZM8.01136 22.5455L7.18182 23.3864L6.35227 22.5455L7.18182 21.7159L8.01136 22.5455ZM5.875 22.5455L5.03409 23.3864L4.19318 22.5455L5.03409 21.7159L5.875 22.5455ZM6.94318 23.625L6.11364 24.4545L5.27273 23.625L6.11364 22.7841L6.94318 23.625Z" fill="black"/>
<path d="M38.4148 14.2159L37.1705 15.4602L35.9091 14.2159L37.1705 12.9545L38.4148 14.2159ZM40.017 15.8182L38.7727 17.0795L37.5284 15.8182L38.7727 14.5739L40.017 15.8182ZM36.8125 15.8182L35.5511 17.0795L34.2898 15.8182L35.5511 14.5739L36.8125 15.8182ZM38.4148 17.4375L37.1705 18.6818L35.9091 17.4375L37.1705 16.1761L38.4148 17.4375Z" fill="black"/>
<path d="M22.4148 21.2159L21.1705 22.4602L19.9091 21.2159L21.1705 19.9545L22.4148 21.2159ZM24.017 22.8182L22.7727 24.0795L21.5284 22.8182L22.7727 21.5739L24.017 22.8182ZM20.8125 22.8182L19.5511 24.0795L18.2898 22.8182L19.5511 21.5739L20.8125 22.8182ZM22.4148 24.4375L21.1705 25.6818L19.9091 24.4375L21.1705 23.1761L22.4148 24.4375Z" fill="black"/>
</svg>
