<svg width="42" height="31" viewBox="0 0 42 31" fill="none" xmlns="http://www.w3.org/2000/svg">
<path d="M16.162 21.108H17.4831C17.4831 22.294 17.7316 23.1214 18.2288 23.5902C18.726 24.0661 19.5569 24.304 20.7217 24.304H24.1308C25.1109 24.304 25.9596 24.3963 26.6769 24.581C27.3943 24.7727 27.9873 25.0817 28.4561 25.5078C28.9248 25.9339 29.2728 26.5021 29.5001 27.2124C29.7274 27.9226 29.841 28.7997 29.841 29.8438H27.7529C27.7529 29.0199 27.6251 28.37 27.3694 27.8942C27.1137 27.4254 26.716 27.0916 26.1762 26.8928C25.6436 26.701 24.9617 26.6051 24.1308 26.6051H19.8694C19.3154 26.6051 18.8112 26.5305 18.3566 26.3814C17.9021 26.2393 17.5115 25.973 17.1848 25.5824C16.8581 25.1918 16.6059 24.6342 16.4284 23.9098C16.2508 23.1925 16.162 22.2585 16.162 21.108ZM2.56824 29.8438C2.56824 28.7997 2.68188 27.9226 2.90915 27.2124C3.13642 26.5021 3.48444 25.9339 3.95318 25.5078C4.42194 25.0817 5.01497 24.7727 5.7323 24.581C6.44963 24.3963 7.29836 24.304 8.27847 24.304H11.6876C12.8524 24.304 13.6833 24.0661 14.1805 23.5902C14.6777 23.1214 14.9262 22.294 14.9262 21.108H16.2473C16.2473 22.2585 16.1585 23.1925 15.9809 23.9098C15.8034 24.6342 15.5512 25.1918 15.2245 25.5824C14.8978 25.973 14.5072 26.2393 14.0527 26.3814C13.5981 26.5305 13.0939 26.6051 12.5399 26.6051H8.27847C7.4475 26.6051 6.76568 26.701 6.23301 26.8928C5.70034 27.0916 5.30617 27.4254 5.05049 27.8942C4.7877 28.37 4.65631 29.0199 4.65631 29.8438H2.56824ZM14.9262 21.108H17.4831V23.6222H14.9262V21.108Z" fill="#F5F5F5"/>
<path d="M22.162 21.108H23.4831C23.4831 22.294 23.7316 23.1214 24.2288 23.5902C24.726 24.0661 25.5569 24.304 26.7217 24.304H30.1308C31.1109 24.304 31.9596 24.3963 32.6769 24.581C33.3943 24.7727 33.9873 25.0817 34.4561 25.5078C34.9248 25.9339 35.2728 26.5021 35.5001 27.2124C35.7274 27.9226 35.841 28.7997 35.841 29.8438H33.7529C33.7529 29.0199 33.6251 28.37 33.3694 27.8942C33.1137 27.4254 32.716 27.0916 32.1762 26.8928C31.6436 26.701 30.9617 26.6051 30.1308 26.6051H25.8694C25.3154 26.6051 24.8112 26.5305 24.3566 26.3814C23.9021 26.2393 23.5115 25.973 23.1848 25.5824C22.8581 25.1918 22.6059 24.6342 22.4284 23.9098C22.2508 23.1925 22.162 22.2585 22.162 21.108ZM8.56824 29.8438C8.56824 28.7997 8.68188 27.9226 8.90915 27.2124C9.13642 26.5021 9.48444 25.9339 9.95318 25.5078C10.422 25.0817 11.015 24.7727 11.7323 24.581C12.4497 24.3963 13.2984 24.304 14.2785 24.304H17.6876C18.8524 24.304 19.6833 24.0661 20.1805 23.5902C20.6777 23.1214 20.9262 22.294 20.9262 21.108H22.2473C22.2473 22.2585 22.1585 23.1925 21.9809 23.9098C21.8034 24.6342 21.5512 25.1918 21.2245 25.5824C20.8978 25.973 20.5072 26.2393 20.0527 26.3814C19.5981 26.5305 19.0939 26.6051 18.5399 26.6051H14.2785C13.4475 26.6051 12.7657 26.701 12.2331 26.8928C11.7004 27.0916 11.3062 27.4254 11.0505 27.8942C10.7877 28.37 10.6563 29.0199 10.6563 29.8438H8.56824ZM20.9262 21.108H23.4831V23.6222H20.9262V21.108Z" fill="#F5F5F5"/>
<path d="M11.875 26V11.4545H26.4205V26H11.875Z" fill="#F5F5F5"/>
<path d="M19.2093 15.5877C14.9831 15.5877 11.9537 13.8486 11.9537 11.2306C11.9537 8.5939 14.927 6.8548 19.2093 6.8548C23.4355 6.8548 26.4649 8.5752 26.4649 11.2306C26.4649 13.6429 23.0802 15.5877 19.2093 15.5877Z" fill="#F5F5F5"/>
</svg>
