<svg width="183" height="160" viewBox="0 0 183 160" fill="none" xmlns="http://www.w3.org/2000/svg">
<path d="M7.06 100.24V56.3201H50.98V100.24H7.06ZM9.76 66.5801H48.28V59.0201H9.76V66.5801ZM9.76 76.9001H48.28V69.3401H9.76V76.9001ZM9.76 87.1601H48.28V79.6001H9.76V87.1601ZM9.76 97.5401H48.28V89.8601H9.76V97.5401ZM48.6991 100.24V56.3201H92.6191V100.24H48.6991ZM51.3991 66.5801H89.9191V59.0201H51.3991V66.5801ZM51.3991 76.9001H89.9191V69.3401H51.3991V76.9001ZM51.3991 87.1601H89.9191V79.6001H51.3991V87.1601ZM51.3991 97.5401H89.9191V89.8601H51.3991V97.5401ZM90.3381 100.24V56.3201H134.258V100.24H90.3381ZM93.0381 66.5801H131.558V59.0201H93.0381V66.5801ZM93.0381 76.9001H131.558V69.3401H93.0381V76.9001ZM93.0381 87.1601H131.558V79.6001H93.0381V87.1601ZM93.0381 97.5401H131.558V89.8601H93.0381V97.5401ZM131.977 100.24V56.3201H175.897V100.24H131.977ZM134.677 66.5801H173.197V59.0201H134.677V66.5801ZM134.677 76.9001H173.197V69.3401H134.677V76.9001ZM134.677 87.1601H173.197V79.6001H134.677V87.1601ZM134.677 97.5401H173.197V89.8601H134.677V97.5401Z" fill="#F5F5F5"/>
<path d="M7.06 142.24V98.32H50.98V142.24H7.06ZM9.76 108.58H48.28V101.02H9.76V108.58ZM9.76 118.9H48.28V111.34H9.76V118.9ZM9.76 129.16H48.28V121.6H9.76V129.16ZM9.76 139.54H48.28V131.86H9.76V139.54Z" fill="#F5F5F5"/>
<path d="M90.06 142.24V98.32H133.98V142.24H90.06ZM92.76 108.58H131.28V101.02H92.76V108.58ZM92.76 118.9H131.28V111.34H92.76V118.9ZM92.76 129.16H131.28V121.6H92.76V129.16ZM92.76 139.54H131.28V131.86H92.76V139.54ZM131.699 142.24V98.32H175.619V142.24H131.699ZM134.399 108.58H172.919V101.02H134.399V108.58ZM134.399 118.9H172.919V111.34H134.399V118.9ZM134.399 129.16H172.919V121.6H134.399V129.16ZM134.399 139.54H172.919V131.86H134.399V139.54Z" fill="#F5F5F5"/>
<path d="M47.774 142V97.748H92.026V142H47.774ZM50.512 139.262H68.568V100.486H50.512V139.262ZM71.232 139.262H89.288V100.486H71.232V139.262Z" fill="#F5F5F5"/>
<path d="M48.625 58V14.3636H92.2614V58H48.625Z" fill="#F5F5F5"/>
<path d="M5.625 58V14.3636H49.2614V58H5.625Z" fill="#F5F5F5"/>
<path d="M91.625 58V14.3636H135.261V58H91.625Z" fill="#F5F5F5"/>
<path d="M133.625 58V14.3636H177.261V58H133.625Z" fill="#F5F5F5"/>
</svg>
