<svg width="178" height="173" viewBox="0 0 178 173" fill="none" xmlns="http://www.w3.org/2000/svg">
<path d="M4.06 113.24V69.32H47.98V113.24H4.06ZM6.76 79.58H45.28V72.02H6.76V79.58ZM6.76 89.9H45.28V82.34H6.76V89.9ZM6.76 100.16H45.28V92.6H6.76V100.16ZM6.76 110.54H45.28V102.86H6.76V110.54ZM45.6991 113.24V69.32H89.6191V113.24H45.6991ZM48.3991 79.58H86.9191V72.02H48.3991V79.58ZM48.3991 89.9H86.9191V82.34H48.3991V89.9ZM48.3991 100.16H86.9191V92.6H48.3991V100.16ZM48.3991 110.54H86.9191V102.86H48.3991V110.54ZM87.3381 113.24V69.32H131.258V113.24H87.3381ZM90.0381 79.58H128.558V72.02H90.0381V79.58ZM90.0381 89.9H128.558V82.34H90.0381V89.9ZM90.0381 100.16H128.558V92.6H90.0381V100.16ZM90.0381 110.54H128.558V102.86H90.0381V110.54Z" fill="#F5F5F5"/>
<path d="M4.06 155.24V111.32H47.98V155.24H4.06ZM6.76 121.58H45.28V114.02H6.76V121.58ZM6.76 131.9H45.28V124.34H6.76V131.9ZM6.76 142.16H45.28V134.6H6.76V142.16ZM6.76 152.54H45.28V144.86H6.76V152.54Z" fill="#F5F5F5"/>
<path d="M87.06 155.24V111.32H130.98V155.24H87.06ZM89.76 121.58H128.28V114.02H89.76V121.58ZM89.76 131.9H128.28V124.34H89.76V131.9ZM89.76 142.16H128.28V134.6H89.76V142.16ZM89.76 152.54H128.28V144.86H89.76V152.54Z" fill="#F5F5F5"/>
<path d="M128.06 155.24V111.32H171.98V155.24H128.06ZM130.76 121.58H169.28V114.02H130.76V121.58ZM130.76 131.9H169.28V124.34H130.76V131.9ZM130.76 142.16H169.28V134.6H130.76V142.16ZM130.76 152.54H169.28V144.86H130.76V152.54Z" fill="#F5F5F5"/>
<path d="M44.774 155V110.748H89.026V155H44.774ZM47.512 152.262H65.568V113.486H47.512V152.262ZM68.232 152.262H86.288V113.486H68.232V152.262Z" fill="#F5F5F5"/>
<path d="M45.625 71V27.3636H89.2614V71H45.625Z" fill="#F5F5F5"/>
<path d="M128.625 113V69.3636H172.261V113H128.625Z" fill="#F5F5F5"/>
<path d="M3.672 70L46.728 26.944V70H3.672Z" fill="#F5F5F5"/>
<path d="M131.328 70L88.272 26.944V70H131.328Z" fill="#F5F5F5"/>
<path d="M46.43 71L4.57001 112.86V71H46.43Z" fill="#F5F5F5"/>
<path d="M87.57 70L129.43 111.86V70H87.57Z" fill="#F5F5F5"/>
</svg>
