<svg width="141" height="161" viewBox="0 0 141 161" fill="none" xmlns="http://www.w3.org/2000/svg">
<path d="M7.06 101.24V57.3201H50.98V101.24H7.06ZM9.76 67.5801H48.28V60.0201H9.76V67.5801ZM9.76 77.9001H48.28V70.3401H9.76V77.9001ZM9.76 88.1601H48.28V80.6001H9.76V88.1601ZM9.76 98.5401H48.28V90.8601H9.76V98.5401ZM48.6991 101.24V57.3201H92.6191V101.24H48.6991ZM51.3991 67.5801H89.9191V60.0201H51.3991V67.5801ZM51.3991 77.9001H89.9191V70.3401H51.3991V77.9001ZM51.3991 88.1601H89.9191V80.6001H51.3991V88.1601ZM51.3991 98.5401H89.9191V90.8601H51.3991V98.5401ZM90.3381 101.24V57.3201H134.258V101.24H90.3381ZM93.0381 67.5801H131.558V60.0201H93.0381V67.5801ZM93.0381 77.9001H131.558V70.3401H93.0381V77.9001ZM93.0381 88.1601H131.558V80.6001H93.0381V88.1601ZM93.0381 98.5401H131.558V90.8601H93.0381V98.5401Z" fill="#F5F5F5"/>
<path d="M7.06 143.24V99.32H50.98V143.24H7.06ZM9.76 109.58H48.28V102.02H9.76V109.58ZM9.76 119.9H48.28V112.34H9.76V119.9ZM9.76 130.16H48.28V122.6H9.76V130.16ZM9.76 140.54H48.28V132.86H9.76V140.54Z" fill="#F5F5F5"/>
<path d="M90.06 143.24V99.32H133.98V143.24H90.06ZM92.76 109.58H131.28V102.02H92.76V109.58ZM92.76 119.9H131.28V112.34H92.76V119.9ZM92.76 130.16H131.28V122.6H92.76V130.16ZM92.76 140.54H131.28V132.86H92.76V140.54Z" fill="#F5F5F5"/>
<path d="M47.774 143V98.748H92.026V143H47.774ZM50.512 140.262H68.568V101.486H50.512V140.262ZM71.232 140.262H89.288V101.486H71.232V140.262Z" fill="#F5F5F5"/>
<path d="M48.625 59V15.3636H92.2614V59H48.625Z" fill="#F5F5F5"/>
<path d="M5.625 59V15.3636H49.2614V59H5.625Z" fill="#F5F5F5"/>
<path d="M91.625 59V15.3636H135.261V59H91.625Z" fill="#F5F5F5"/>
<path d="M101.812 29V7.18182H123.631V29H101.812Z" fill="#212121"/>
<path d="M101.812 47V25.1818H123.631V47H101.812Z" fill="#212121"/>
<path d="M101.53 29.12V7.16H123.49V29.12H101.53ZM103.45 27.2H121.57V9.08H103.45V27.2ZM108.79 21.86V14.42H116.23V21.86H108.79Z" fill="#F5F5F5"/>
</svg>
