<svg width="40" height="41" viewBox="0 0 40 41" fill="none" xmlns="http://www.w3.org/2000/svg">
<path d="M18.7216 29.3409C17.1733 29.3409 15.7173 29.0497 14.3537 28.4673C12.9972 27.8849 11.8004 27.0788 10.7635 26.049C9.73366 25.0121 8.92401 23.8153 8.33452 22.4588C7.75213 21.1023 7.46449 19.6463 7.47159 18.0909C7.47869 16.5355 7.77344 15.0795 8.35582 13.723C8.94531 12.3665 9.75497 11.1733 10.7848 10.1435C11.8146 9.10653 13.0078 8.29687 14.3643 7.71449C15.7209 7.1321 17.1733 6.84091 18.7216 6.84091C20.277 6.84091 21.733 7.1321 23.0895 7.71449C24.4531 8.29687 25.6463 9.10653 26.669 10.1435C27.6989 11.1733 28.505 12.3665 29.0874 13.723C29.6697 15.0795 29.9645 16.5355 29.9716 18.0909C29.9787 19.6463 29.6911 21.1023 29.1087 22.4588C28.5263 23.8153 27.7202 25.0121 26.6903 26.049C25.6605 27.0788 24.4638 27.8849 23.1001 28.4673C21.7365 29.0497 20.277 29.3409 18.7216 29.3409Z" fill="#F7F7F7"/>
<path d="M19.17 30.13C12.39 30.13 7.53 27.34 7.53 23.14C7.53 18.91 12.3 16.12 19.17 16.12C25.95 16.12 30.81 18.88 30.81 23.14C30.81 27.01 25.38 30.13 19.17 30.13Z" fill="#F7F7F7"/>
<path d="M30.1477 28.2273C29.1155 28.2273 28.1449 28.0331 27.2358 27.6449C26.3314 27.2566 25.5336 26.7192 24.8423 26.0327C24.1558 25.3414 23.616 24.5436 23.223 23.6392C22.8348 22.7348 22.643 21.7642 22.6477 20.7273C22.6525 19.6903 22.849 18.7197 23.2372 17.8153C23.6302 16.911 24.17 16.1155 24.8565 15.429C25.5431 14.7377 26.3385 14.1979 27.2429 13.8097C28.1473 13.4214 29.1155 13.2273 30.1477 13.2273C31.1847 13.2273 32.1553 13.4214 33.0597 13.8097C33.9688 14.1979 34.7642 14.7377 35.446 15.429C36.1326 16.1155 36.67 16.911 37.0582 17.8153C37.4465 18.7197 37.643 19.6903 37.6477 20.7273C37.6525 21.7642 37.4607 22.7348 37.0724 23.6392C36.6842 24.5436 36.1468 25.3414 35.4602 26.0327C34.7737 26.7192 33.9759 27.2566 33.0668 27.6449C32.1577 28.0331 31.1847 28.2273 30.1477 28.2273Z" fill="#F7F7F7"/>
<path d="M30.78 30.42C26.26 30.42 23.02 28.56 23.02 25.76C23.02 22.94 26.2 21.08 30.78 21.08C35.3 21.08 38.54 22.92 38.54 25.76C38.54 28.34 34.92 30.42 30.78 30.42Z" fill="#F7F7F7"/>
<path d="M6.8608 29.1705C6.08665 29.1705 5.35866 29.0249 4.67685 28.7337C3.99858 28.4425 3.40021 28.0394 2.88175 27.5245C2.36683 27.006 1.962 26.4077 1.66726 25.7294C1.37607 25.0511 1.23224 24.3232 1.2358 23.5455C1.23935 22.7678 1.38672 22.0398 1.67791 21.3615C1.97266 20.6832 2.37749 20.0866 2.8924 19.5717C3.40732 19.0533 4.00391 18.6484 4.68217 18.3572C5.36044 18.0661 6.08665 17.9205 6.8608 17.9205C7.63849 17.9205 8.36648 18.0661 9.04474 18.3572C9.72656 18.6484 10.3232 19.0533 10.8345 19.5717C11.3494 20.0866 11.7525 20.6832 12.0437 21.3615C12.3349 22.0398 12.4822 22.7678 12.4858 23.5455C12.4893 24.3232 12.3455 25.0511 12.0543 25.7294C11.7631 26.4077 11.3601 27.006 10.8452 27.5245C10.3303 28.0394 9.73189 28.4425 9.05007 28.7337C8.36825 29.0249 7.63849 29.1705 6.8608 29.1705Z" fill="#F7F7F7"/>
<path d="M6.585 30.065C3.195 30.065 0.765 28.67 0.765 26.57C0.765 24.455 3.15 23.06 6.585 23.06C9.975 23.06 12.405 24.44 12.405 26.57C12.405 28.505 9.69 30.065 6.585 30.065Z" fill="#F7F7F7"/>
</svg>
