<svg width="24" height="29" viewBox="0 0 24 29" fill="none" xmlns="http://www.w3.org/2000/svg">
<path d="M14.1477 19.2273C13.1155 19.2273 12.1449 19.0331 11.2358 18.6449C10.3314 18.2566 9.53362 17.7192 8.84233 17.0327C8.15578 16.3414 7.616 15.5436 7.22301 14.6392C6.83475 13.7348 6.64299 12.7642 6.64773 11.7273C6.65246 10.6903 6.84896 9.7197 7.23722 8.81534C7.63021 7.91098 8.16998 7.11553 8.85653 6.42898C9.54309 5.73769 10.3385 5.19792 11.2429 4.80966C12.1473 4.4214 13.1155 4.22727 14.1477 4.22727C15.1847 4.22727 16.1553 4.4214 17.0597 4.80966C17.9688 5.19792 18.7642 5.73769 19.446 6.42898C20.1326 7.11553 20.67 7.91098 21.0582 8.81534C21.4465 9.7197 21.643 10.6903 21.6477 11.7273C21.6525 12.7642 21.4607 13.7348 21.0724 14.6392C20.6842 15.5436 20.1468 16.3414 19.4602 17.0327C18.7737 17.7192 17.9759 18.2566 17.0668 18.6449C16.1577 19.0331 15.1847 19.2273 14.1477 19.2273Z" fill="#F5F5F5"/>
<path d="M14.78 21.42C10.26 21.42 7.02 19.56 7.02 16.76C7.02 13.94 10.2 12.08 14.78 12.08C19.3 12.08 22.54 13.92 22.54 16.76C22.54 19.34 18.92 21.42 14.78 21.42Z" fill="#F5F5F5"/>
<path d="M6.8608 20.1705C6.08665 20.1705 5.35866 20.0249 4.67685 19.7337C3.99858 19.4425 3.40021 19.0394 2.88175 18.5245C2.36683 18.006 1.962 17.4077 1.66726 16.7294C1.37607 16.0511 1.23224 15.3232 1.2358 14.5455C1.23935 13.7678 1.38672 13.0398 1.67791 12.3615C1.97266 11.6832 2.37749 11.0866 2.8924 10.5717C3.40732 10.0533 4.00391 9.64844 4.68217 9.35724C5.36044 9.06605 6.08665 8.92045 6.8608 8.92045C7.63849 8.92045 8.36648 9.06605 9.04474 9.35724C9.72656 9.64844 10.3232 10.0533 10.8345 10.5717C11.3494 11.0866 11.7525 11.6832 12.0437 12.3615C12.3349 13.0398 12.4822 13.7678 12.4858 14.5455C12.4893 15.3232 12.3455 16.0511 12.0543 16.7294C11.7631 17.4077 11.3601 18.006 10.8452 18.5245C10.3303 19.0394 9.73189 19.4425 9.05007 19.7337C8.36825 20.0249 7.63849 20.1705 6.8608 20.1705Z" fill="#F5F5F5"/>
<path d="M6.585 21.065C3.195 21.065 0.765 19.67 0.765 17.57C0.765 15.455 3.15 14.06 6.585 14.06C9.975 14.06 12.405 15.44 12.405 17.57C12.405 19.505 9.69 21.065 6.585 21.065Z" fill="#F5F5F5"/>
</svg>
