<svg width="43" height="107" viewBox="0 0 43 107" fill="none" xmlns="http://www.w3.org/2000/svg">
<path d="M27.5586 95.1289V46.5938H30.9766V95.1289H27.5586ZM20.1367 95.1289V46.5938H23.5547V95.1289H20.1367Z" fill="#F5F5F5"/>
<path d="M24.88 48.36C16.16 48.36 9.03999 41.28 9.03999 32.52C9.03999 23.76 16.16 16.68 24.88 16.68C33.64 16.68 40.72 23.76 40.72 32.52C40.72 41.28 33.64 48.36 24.88 48.36ZM24.88 45.6C32.12 45.6 37.96 39.76 37.96 32.52C37.96 25.28 32.12 19.44 24.88 19.44C17.64 19.44 11.8 25.28 11.8 32.52C11.8 39.76 17.64 45.6 24.88 45.6ZM24.88 43.68C18.68 43.68 13.72 38.72 13.72 32.52C13.72 26.32 18.68 21.36 24.88 21.36C31.08 21.36 36.08 26.32 36.08 32.52C36.08 38.72 31.08 43.68 24.88 43.68Z" fill="#F5F5F5"/>
<path d="M20.4258 8.78125H29.6445V18H20.4258V8.78125Z" fill="#F5F5F5"/>
<path d="M15 95.1348H34.9902V98.9043H15V95.1348Z" fill="#F5F5F5"/>
</svg>
