<svg width="85" height="103" viewBox="0 0 85 103" fill="none" xmlns="http://www.w3.org/2000/svg">
<path d="M40.1619 93.108H41.483C41.483 94.294 41.7315 95.1214 42.2287 95.5902C42.7259 96.0661 43.5568 96.304 44.7216 96.304H48.1307C49.1108 96.304 49.9595 96.3963 50.6768 96.581C51.3942 96.7727 51.9872 97.0817 52.456 97.5078C52.9247 97.9339 53.2727 98.5021 53.5 99.2124C53.7273 99.9226 53.8409 100.8 53.8409 101.844H51.7528C51.7528 101.02 51.625 100.37 51.3693 99.8942C51.1136 99.4254 50.7159 99.0916 50.1761 98.8928C49.6435 98.701 48.9616 98.6051 48.1307 98.6051H43.8693C43.3153 98.6051 42.8111 98.5305 42.3565 98.3814C41.902 98.2393 41.5114 97.973 41.1847 97.5824C40.858 97.1918 40.6058 96.6342 40.4283 95.9098C40.2507 95.1925 40.1619 94.2585 40.1619 93.108ZM26.5682 101.844C26.5682 100.8 26.6818 99.9226 26.9091 99.2124C27.1364 98.5021 27.4844 97.9339 27.9531 97.5078C28.4219 97.0817 29.0149 96.7727 29.7322 96.581C30.4496 96.3963 31.2983 96.304 32.2784 96.304H35.6875C36.8523 96.304 37.6832 96.0661 38.1804 95.5902C38.6776 95.1214 38.9261 94.294 38.9261 93.108H40.2472C40.2472 94.2585 40.1584 95.1925 39.9808 95.9098C39.8033 96.6342 39.5511 97.1918 39.2244 97.5824C38.8977 97.973 38.5071 98.2393 38.0526 98.3814C37.598 98.5305 37.0938 98.6051 36.5398 98.6051H32.2784C31.4474 98.6051 30.7656 98.701 30.233 98.8928C29.7003 99.0916 29.3061 99.4254 29.0504 99.8942C28.7876 100.37 28.6562 101.02 28.6562 101.844H26.5682ZM38.9261 93.108H41.483V95.6222H38.9261V93.108Z" fill="#F5F5F5"/>
<path d="M46.1619 93.108H47.483C47.483 94.294 47.7315 95.1214 48.2287 95.5902C48.7259 96.0661 49.5568 96.304 50.7216 96.304H54.1307C55.1108 96.304 55.9595 96.3963 56.6768 96.581C57.3942 96.7727 57.9872 97.0817 58.456 97.5078C58.9247 97.9339 59.2727 98.5021 59.5 99.2124C59.7273 99.9226 59.8409 100.8 59.8409 101.844H57.7528C57.7528 101.02 57.625 100.37 57.3693 99.8942C57.1136 99.4254 56.7159 99.0916 56.1761 98.8928C55.6435 98.701 54.9616 98.6051 54.1307 98.6051H49.8693C49.3153 98.6051 48.8111 98.5305 48.3565 98.3814C47.902 98.2393 47.5114 97.973 47.1847 97.5824C46.858 97.1918 46.6058 96.6342 46.4283 95.9098C46.2507 95.1925 46.1619 94.2585 46.1619 93.108ZM32.5682 101.844C32.5682 100.8 32.6818 99.9226 32.9091 99.2124C33.1364 98.5021 33.4844 97.9339 33.9531 97.5078C34.4219 97.0817 35.0149 96.7727 35.7322 96.581C36.4496 96.3963 37.2983 96.304 38.2784 96.304H41.6875C42.8523 96.304 43.6832 96.0661 44.1804 95.5902C44.6776 95.1214 44.9261 94.294 44.9261 93.108H46.2472C46.2472 94.2585 46.1584 95.1925 45.9808 95.9098C45.8033 96.6342 45.5511 97.1918 45.2244 97.5824C44.8977 97.973 44.5071 98.2393 44.0526 98.3814C43.598 98.5305 43.0938 98.6051 42.5398 98.6051H38.2784C37.4474 98.6051 36.7656 98.701 36.233 98.8928C35.7003 99.0916 35.3061 99.4254 35.0504 99.8942C34.7876 100.37 34.6562 101.02 34.6562 101.844H32.5682ZM44.9261 93.108H47.483V95.6222H44.9261V93.108Z" fill="#F5F5F5"/>
<path d="M35.875 87V72.4545H50.4205V87H35.875Z" fill="#F5F5F5"/>
<path d="M35.875 97V82.4545H50.4205V97H35.875Z" fill="#F5F5F5"/>
<path d="M42.5909 78.9091C38.4621 78.9091 34.5795 78.1326 30.9432 76.5795C27.3258 75.0265 24.1345 72.8769 21.3693 70.1307C18.6231 67.3655 16.464 64.1742 14.892 60.5568C13.339 56.9394 12.572 53.0568 12.5909 48.9091C12.6098 44.7614 13.3958 40.8788 14.9489 37.2614C16.5208 33.6439 18.6799 30.4621 21.4261 27.7159C24.1723 24.9508 27.3542 22.7917 30.9716 21.2386C34.589 19.6856 38.4621 18.9091 42.5909 18.9091C46.7386 18.9091 50.6212 19.6856 54.2386 21.2386C57.875 22.7917 61.0568 24.9508 63.7841 27.7159C66.5303 30.4621 68.6799 33.6439 70.233 37.2614C71.786 40.8788 72.572 44.7614 72.5909 48.9091C72.6098 53.0568 71.8428 56.9394 70.2898 60.5568C68.7367 64.1742 66.5871 67.3655 63.8409 70.1307C61.0947 72.8769 57.9034 75.0265 54.267 76.5795C50.6307 78.1326 46.7386 78.9091 42.5909 78.9091Z" fill="#F5F5F5"/>
<path d="M33.1477 84.2273C32.1155 84.2273 31.1449 84.0331 30.2358 83.6449C29.3314 83.2566 28.5336 82.7192 27.8423 82.0327C27.1558 81.3414 26.616 80.5436 26.223 79.6392C25.8348 78.7348 25.643 77.7642 25.6477 76.7273C25.6525 75.6903 25.849 74.7197 26.2372 73.8153C26.6302 72.911 27.17 72.1155 27.8565 71.429C28.5431 70.7377 29.3385 70.1979 30.2429 69.8097C31.1473 69.4214 32.1155 69.2273 33.1477 69.2273C34.1847 69.2273 35.1553 69.4214 36.0597 69.8097C36.9688 70.1979 37.7642 70.7377 38.446 71.429C39.1326 72.1155 39.67 72.911 40.0582 73.8153C40.4465 74.7197 40.643 75.6903 40.6477 76.7273C40.6525 77.7642 40.4607 78.7348 40.0724 79.6392C39.6842 80.5436 39.1468 81.3414 38.4602 82.0327C37.7737 82.7192 36.9759 83.2566 36.0668 83.6449C35.1577 84.0331 34.1847 84.2273 33.1477 84.2273Z" fill="#F5F5F5"/>
<path d="M18.2955 80.4545C16.2311 80.4545 14.2898 80.0663 12.4716 79.2898C10.6629 78.5133 9.06724 77.4384 7.68466 76.0653C6.31155 74.6828 5.23201 73.0871 4.44602 71.2784C3.66951 69.4697 3.28598 67.5284 3.29545 65.4545C3.30492 63.3807 3.69792 61.4394 4.47443 59.6307C5.26042 57.822 6.33996 56.2311 7.71307 54.858C9.08617 53.4754 10.6771 52.3958 12.4858 51.6193C14.2945 50.8428 16.2311 50.4545 18.2955 50.4545C20.3693 50.4545 22.3106 50.8428 24.1193 51.6193C25.9375 52.3958 27.5284 53.4754 28.892 54.858C30.2652 56.2311 31.34 57.822 32.1165 59.6307C32.893 61.4394 33.286 63.3807 33.2955 65.4545C33.3049 67.5284 32.9214 69.4697 32.1449 71.2784C31.3684 73.0871 30.2936 74.6828 28.9205 76.0653C27.5473 77.4384 25.9517 78.5133 24.1335 79.2898C22.3153 80.0663 20.3693 80.4545 18.2955 80.4545Z" fill="#F5F5F5"/>
<path d="M66.2955 73.4545C64.2311 73.4545 62.2898 73.0663 60.4716 72.2898C58.6629 71.5133 57.0672 70.4384 55.6847 69.0653C54.3116 67.6828 53.232 66.0871 52.446 64.2784C51.6695 62.4697 51.286 60.5284 51.2955 58.4545C51.3049 56.3807 51.6979 54.4394 52.4744 52.6307C53.2604 50.822 54.34 49.2311 55.7131 47.858C57.0862 46.4754 58.6771 45.3958 60.4858 44.6193C62.2945 43.8428 64.2311 43.4545 66.2955 43.4545C68.3693 43.4545 70.3106 43.8428 72.1193 44.6193C73.9375 45.3958 75.5284 46.4754 76.892 47.858C78.2652 49.2311 79.34 50.822 80.1165 52.6307C80.893 54.4394 81.286 56.3807 81.2955 58.4545C81.3049 60.5284 80.9214 62.4697 80.1449 64.2784C79.3684 66.0871 78.2936 67.6828 76.9205 69.0653C75.5473 70.4384 73.9517 71.5133 72.1335 72.2898C70.3153 73.0663 68.3693 73.4545 66.2955 73.4545Z" fill="#F5F5F5"/>
</svg>
