<svg width="30" height="25" viewBox="0 0 30 25" fill="none" xmlns="http://www.w3.org/2000/svg">
<path d="M14.02 5.28615V19.9262H28.66V5.28615H14.02ZM27.76 6.72615V10.2862L19.06 19.0262H15.48L27.76 6.72615ZM27.76 11.5462V15.1862L23.94 19.0262H20.34L27.76 11.5462ZM27.76 16.4662V19.0262H25.2L27.76 16.4662ZM23.42 6.18615H27L14.92 18.2862V14.7262L23.42 6.18615ZM18.72 6.18615H22.14L14.92 13.4662V10.0262L18.72 6.18615ZM14.92 6.18615H17.44L14.92 8.74615V6.18615Z" fill="#F5F5F5"/>
<path d="M1.02 5.28615V19.9262H15.66V5.28615H1.02ZM1.92 11.5462L9.34 19.0262H5.74L1.92 15.1862V11.5462ZM1.92 6.72615L14.2 19.0262H10.62L1.92 10.2862V6.72615ZM1.92 16.4662L4.48 19.0262H1.92V16.4662ZM2.68 6.18615H6.26L14.76 14.7262V18.2862L2.68 6.18615ZM7.54 6.18615H10.96L14.76 10.0262V13.4662L7.54 6.18615ZM12.24 6.18615H14.76V8.74615L12.24 6.18615Z" fill="#F5F5F5"/>
<path d="M1.02 5.28615V19.9262H15.66V5.28615H1.02ZM2.3 6.56615H14.38V18.6462H2.3V6.56615ZM5.86 10.1262V15.0862H10.82V10.1262H5.86Z" fill="#F5F5F5"/>
<path d="M14.02 5.28615V19.9262H28.66V5.28615H14.02ZM15.3 6.56615H27.38V18.6462H15.3V6.56615ZM18.86 10.1262V15.0862H23.82V10.1262H18.86Z" fill="#F5F5F5"/>
</svg>
