<svg width="29" height="55" viewBox="0 0 29 55" fill="none" xmlns="http://www.w3.org/2000/svg">
<path d="M22.0001 28.311H7.45467L7.45467 13.7656H22.0001V28.311Z" fill="#F5F5F5"/>
<path d="M22.0001 41.1235H6.00012L6.00012 25.1235H22.0001V41.1235Z" fill="#F5F5F5"/>
<path d="M23.0001 32.2485H15.7274V24.9758H23.0001V32.2485Z" fill="#F5F5F5"/>
<path d="M23.0001 38.2485H15.7274V30.9758H23.0001V38.2485Z" fill="#F5F5F5"/>
<path d="M14.78 16.606C10.26 16.606 7.02 14.746 7.02 11.946C7.02 9.12603 10.2 7.26603 14.78 7.26603C19.3 7.26603 22.54 9.10603 22.54 11.946C22.54 14.526 18.92 16.606 14.78 16.606Z" fill="#F5F5F5"/>
<path d="M14.6774 44.7546C8.6658 44.7546 4.3566 42.2808 4.3566 38.5568C4.3566 34.8062 8.586 32.3324 14.6774 32.3324C20.689 32.3324 24.9982 34.7796 24.9982 38.5568C24.9982 41.9882 20.1836 44.7546 14.6774 44.7546Z" fill="#F5F5F5"/>
<path d="M8.77901 11.4314L6.34174 37.6308L4.78596 37.4861L7.22323 11.2867L8.77901 11.4314Z" fill="#F5F5F5"/>
<path d="M20.6875 11.4314L23.1248 37.6308L24.6806 37.4861L22.2433 11.2867L20.6875 11.4314Z" fill="#F5F5F5"/>
<path d="M15.375 47.3423V21.0298H13.8125V47.3423H15.375Z" fill="#F5F5F5"/>
<path d="M4.72151 51.5173L10.2865 25.8L11.8136 26.1304L6.24866 51.8477L4.72151 51.5173Z" fill="#F5F5F5"/>
<path d="M24.808 51.5173L19.2431 25.8L17.7159 26.1304L23.2809 51.8477L24.808 51.5173Z" fill="#F5F5F5"/>
</svg>
