<svg width="17" height="57" viewBox="0 0 17 57" fill="none" xmlns="http://www.w3.org/2000/svg">
<path d="M8.28539 53.2622C6.02539 53.2622 4.40539 52.3322 4.40539 50.9322C4.40539 49.5222 5.99539 48.5922 8.28539 48.5922C10.5454 48.5922 12.1654 49.5122 12.1654 50.9322C12.1654 52.2222 10.3554 53.2622 8.28539 53.2622Z" fill="#F5F5F5"/>
<path d="M8.4313 15.864C4.3633 15.864 1.4473 14.19 1.4473 11.67C1.4473 9.13203 4.3093 7.45803 8.4313 7.45803C12.4993 7.45803 15.4153 9.11404 15.4153 11.67C15.4153 13.992 12.1573 15.864 8.4313 15.864Z" fill="#F5F5F5"/>
<path d="M8.4193 17.6376C6.1593 17.6376 4.5393 16.7076 4.5393 15.3076C4.5393 13.8976 6.1293 12.9676 8.4193 12.9676C10.6793 12.9676 12.2993 13.8876 12.2993 15.3076C12.2993 16.5976 10.4893 17.6376 8.4193 17.6376Z" fill="#F5F5F5"/>
<path d="M9.27039 50.7084V24.3959H7.70789V50.7084H9.27039Z" fill="#F5F5F5"/>
<path d="M13.3016 11.5522H15.3329L9.45789 27.5522H7.45789L1.58289 11.5522H3.61414L8.39539 25.0209H8.52039L13.3016 11.5522ZM12.5516 17.8022H4.36414L4.36414 16.0834H12.5516V17.8022Z" fill="#F5F5F5"/>
</svg>
