<svg width="37" height="57" viewBox="0 0 37 57" fill="none" xmlns="http://www.w3.org/2000/svg">
<path d="M19.2854 53.2622C17.0254 53.2622 15.4054 52.3322 15.4054 50.9322C15.4054 49.5222 16.9954 48.5922 19.2854 48.5922C21.5454 48.5922 23.1654 49.5122 23.1654 50.9322C23.1654 52.2222 21.3554 53.2622 19.2854 53.2622Z" fill="#F5F5F5"/>
<path d="M19.4313 15.864C15.3633 15.864 12.4473 14.19 12.4473 11.67C12.4473 9.13203 15.3093 7.45803 19.4313 7.45803C23.4993 7.45803 26.4153 9.11404 26.4153 11.67C26.4153 13.992 23.1573 15.864 19.4313 15.864Z" fill="#F5F5F5"/>
<path d="M19.4313 22.681C15.3633 22.681 12.4473 21.007 12.4473 18.487C12.4473 15.949 15.3093 14.275 19.4313 14.275C23.4993 14.275 26.4153 15.931 26.4153 18.487C26.4153 20.809 23.1573 22.681 19.4313 22.681Z" fill="#F5F5F5"/>
<path d="M20.2704 48.9001V22.5876H18.7079V48.9001H20.2704Z" fill="#F5F5F5"/>
<path d="M12.5123 11.8191H14.0748V18.1827H12.5123V11.8191Z" fill="#F5F5F5"/>
<path d="M24.8509 11.8191H26.4134V18.1827H24.8509V11.8191Z" fill="#F5F5F5"/>
<path d="M23.3969 11.9402H24.9594V18.3038H23.3969V11.9402Z" fill="#F5F5F5"/>
<path d="M13.6431 12.122H15.2056V18.4856H13.6431V12.122Z" fill="#F5F5F5"/>
</svg>
