<svg width="78" height="49" viewBox="0 0 78 49" fill="none" xmlns="http://www.w3.org/2000/svg">
<mask id="path-1-outside-1_105_1386" maskUnits="userSpaceOnUse" x="5" y="1.36615" width="26" height="27" fill="black">
<rect fill="white" x="5" y="1.36615" width="26" height="27"/>
<path d="M29 25.5536H7.18182L7.18182 3.73547H29V25.5536Z"/>
</mask>
<path d="M29 25.5536H7.18182L7.18182 3.73547H29V25.5536Z" fill="#F5F5F5"/>
<path d="M29 25.5536V27.5536L31 27.5536V25.5536H29ZM7.18182 25.5536H5.18182V27.5536H7.18182V25.5536ZM7.18182 3.73547V1.73547H5.18182V3.73547H7.18182ZM29 3.73547L31 3.73547V1.73547L29 1.73547V3.73547ZM29 23.5536H7.18182V27.5536H29V23.5536ZM9.18182 25.5536L9.18182 3.73547H5.18182L5.18182 25.5536H9.18182ZM7.18182 5.73547H29V1.73547H7.18182V5.73547ZM27 3.73547V25.5536H31V3.73547L27 3.73547Z" fill="#F5F5F5" mask="url(#path-1-outside-1_105_1386)"/>
<mask id="path-3-outside-2_105_1386" maskUnits="userSpaceOnUse" x="26" y="1.36615" width="26" height="27" fill="black">
<rect fill="white" x="26" y="1.36615" width="26" height="27"/>
<path d="M50 25.5536H28.1818V3.73547H50V25.5536Z"/>
</mask>
<path d="M50 25.5536H28.1818V3.73547H50V25.5536Z" fill="#F5F5F5"/>
<path d="M50 25.5536V27.5536L52 27.5536V25.5536H50ZM28.1818 25.5536H26.1818V27.5536H28.1818V25.5536ZM28.1818 3.73547V1.73547H26.1818V3.73547H28.1818ZM50 3.73547L52 3.73547V1.73547L50 1.73547V3.73547ZM50 23.5536H28.1818V27.5536H50V23.5536ZM30.1818 25.5536V3.73547H26.1818V25.5536H30.1818ZM28.1818 5.73547H50V1.73547H28.1818V5.73547ZM48 3.73547V25.5536H52V3.73547L48 3.73547Z" fill="#F5F5F5" mask="url(#path-3-outside-2_105_1386)"/>
<mask id="path-5-outside-3_105_1386" maskUnits="userSpaceOnUse" x="47" y="1.36615" width="26" height="27" fill="black">
<rect fill="white" x="47" y="1.36615" width="26" height="27"/>
<path d="M71 25.5536H49.1818V3.73547H71V25.5536Z"/>
</mask>
<path d="M71 25.5536H49.1818V3.73547H71V25.5536Z" fill="#F5F5F5"/>
<path d="M71 25.5536V27.5536L73 27.5536V25.5536H71ZM49.1818 25.5536H47.1818V27.5536H49.1818V25.5536ZM49.1818 3.73547V1.73547H47.1818V3.73547H49.1818ZM71 3.73547L73 3.73547V1.73547L71 1.73547V3.73547ZM71 23.5536H49.1818V27.5536H71V23.5536ZM51.1818 25.5536V3.73547H47.1818V25.5536H51.1818ZM49.1818 5.73547H71V1.73547H49.1818V5.73547ZM69 3.73547V25.5536H73V3.73547L69 3.73547Z" fill="#F5F5F5" mask="url(#path-5-outside-3_105_1386)"/>
<mask id="path-7-outside-4_105_1386" maskUnits="userSpaceOnUse" x="5" y="21.3661" width="26" height="27" fill="black">
<rect fill="white" x="5" y="21.3661" width="26" height="27"/>
<path d="M29 45.5536H7.18182L7.18182 23.7355H29V45.5536Z"/>
</mask>
<path d="M29 45.5536H7.18182L7.18182 23.7355H29V45.5536Z" fill="#F5F5F5"/>
<path d="M29 45.5536V47.5536H31V45.5536H29ZM7.18182 45.5536H5.18182V47.5536H7.18182V45.5536ZM7.18182 23.7355V21.7355H5.18182V23.7355H7.18182ZM29 23.7355L31 23.7355V21.7355L29 21.7355V23.7355ZM29 43.5536H7.18182V47.5536H29V43.5536ZM9.18182 45.5536L9.18182 23.7355H5.18182L5.18182 45.5536H9.18182ZM7.18182 25.7355H29V21.7355H7.18182V25.7355ZM27 23.7355V45.5536H31V23.7355L27 23.7355Z" fill="#F5F5F5" mask="url(#path-7-outside-4_105_1386)"/>
<mask id="path-9-outside-5_105_1386" maskUnits="userSpaceOnUse" x="26" y="21.3661" width="26" height="27" fill="black">
<rect fill="white" x="26" y="21.3661" width="26" height="27"/>
<path d="M50 45.5536H28.1818V23.7355H50V45.5536Z"/>
</mask>
<path d="M50 45.5536H28.1818V23.7355H50V45.5536Z" fill="#F5F5F5"/>
<path d="M50 45.5536V47.5536H52V45.5536H50ZM28.1818 45.5536H26.1818V47.5536H28.1818V45.5536ZM28.1818 23.7355V21.7355H26.1818V23.7355H28.1818ZM50 23.7355L52 23.7355V21.7355L50 21.7355V23.7355ZM50 43.5536H28.1818V47.5536H50V43.5536ZM30.1818 45.5536V23.7355H26.1818V45.5536H30.1818ZM28.1818 25.7355H50V21.7355H28.1818V25.7355ZM48 23.7355V45.5536H52V23.7355L48 23.7355Z" fill="#F5F5F5" mask="url(#path-9-outside-5_105_1386)"/>
<mask id="path-11-outside-6_105_1386" maskUnits="userSpaceOnUse" x="47" y="21.3661" width="26" height="27" fill="black">
<rect fill="white" x="47" y="21.3661" width="26" height="27"/>
<path d="M71 45.5536H49.1818V23.7355H71V45.5536Z"/>
</mask>
<path d="M71 45.5536H49.1818V23.7355H71V45.5536Z" fill="#F5F5F5"/>
<path d="M71 45.5536V47.5536H73V45.5536H71ZM49.1818 45.5536H47.1818V47.5536H49.1818V45.5536ZM49.1818 23.7355V21.7355H47.1818V23.7355H49.1818ZM71 23.7355L73 23.7355V21.7355L71 21.7355V23.7355ZM71 43.5536H49.1818V47.5536H71V43.5536ZM51.1818 45.5536V23.7355H47.1818V45.5536H51.1818ZM49.1818 25.7355H71V21.7355H49.1818V25.7355ZM69 23.7355V45.5536H73V23.7355L69 23.7355Z" fill="#F5F5F5" mask="url(#path-11-outside-6_105_1386)"/>
<mask id="path-13-outside-7_105_1386" maskUnits="userSpaceOnUse" x="6" y="2.36615" width="24" height="25" fill="black">
<rect fill="white" x="6" y="2.36615" width="24" height="25"/>
<path d="M29 25.5536H7.18182L7.18182 3.73547H29V25.5536Z"/>
</mask>
<path d="M29 25.5536H7.18182L7.18182 3.73547H29V25.5536Z" fill="#F5F5F5"/>
<path d="M29 25.5536V26.5536H30V25.5536H29ZM7.18182 25.5536H6.18182V26.5536H7.18182V25.5536ZM7.18182 3.73547V2.73547H6.18182V3.73547H7.18182ZM29 3.73547L30 3.73547V2.73547L29 2.73547V3.73547ZM29 24.5536H7.18182V26.5536H29V24.5536ZM8.18182 25.5536L8.18182 3.73547H6.18182L6.18182 25.5536H8.18182ZM7.18182 4.73547H29V2.73547H7.18182V4.73547ZM28 3.73547V25.5536H30V3.73547L28 3.73547Z" fill="#1A1A1A" mask="url(#path-13-outside-7_105_1386)"/>
<mask id="path-15-outside-8_105_1386" maskUnits="userSpaceOnUse" x="27" y="2.36615" width="24" height="25" fill="black">
<rect fill="white" x="27" y="2.36615" width="24" height="25"/>
<path d="M50 25.5536H28.1818V3.73547H50V25.5536Z"/>
</mask>
<path d="M50 25.5536H28.1818V3.73547H50V25.5536Z" fill="#F5F5F5"/>
<path d="M50 25.5536V26.5536H51V25.5536H50ZM28.1818 25.5536H27.1818V26.5536H28.1818V25.5536ZM28.1818 3.73547V2.73547H27.1818V3.73547H28.1818ZM50 3.73547L51 3.73547V2.73547L50 2.73547V3.73547ZM50 24.5536H28.1818V26.5536H50V24.5536ZM29.1818 25.5536V3.73547H27.1818V25.5536H29.1818ZM28.1818 4.73547H50V2.73547H28.1818V4.73547ZM49 3.73547V25.5536H51V3.73547L49 3.73547Z" fill="#1A1A1A" mask="url(#path-15-outside-8_105_1386)"/>
<mask id="path-17-outside-9_105_1386" maskUnits="userSpaceOnUse" x="48" y="2.36615" width="24" height="25" fill="black">
<rect fill="white" x="48" y="2.36615" width="24" height="25"/>
<path d="M71 25.5536H49.1818V3.73547H71V25.5536Z"/>
</mask>
<path d="M71 25.5536H49.1818V3.73547H71V25.5536Z" fill="#F5F5F5"/>
<path d="M71 25.5536V26.5536H72V25.5536H71ZM49.1818 25.5536H48.1818V26.5536H49.1818V25.5536ZM49.1818 3.73547V2.73547H48.1818V3.73547H49.1818ZM71 3.73547L72 3.73547V2.73547L71 2.73547V3.73547ZM71 24.5536H49.1818V26.5536H71V24.5536ZM50.1818 25.5536V3.73547H48.1818V25.5536H50.1818ZM49.1818 4.73547H71V2.73547H49.1818V4.73547ZM70 3.73547V25.5536H72V3.73547L70 3.73547Z" fill="#1A1A1A" mask="url(#path-17-outside-9_105_1386)"/>
<mask id="path-19-outside-10_105_1386" maskUnits="userSpaceOnUse" x="6" y="22.3661" width="24" height="25" fill="black">
<rect fill="white" x="6" y="22.3661" width="24" height="25"/>
<path d="M29 45.5536H7.18182L7.18182 23.7355H29V45.5536Z"/>
</mask>
<path d="M29 45.5536H7.18182L7.18182 23.7355H29V45.5536Z" fill="#F5F5F5"/>
<path d="M29 45.5536V46.5536H30V45.5536H29ZM7.18182 45.5536H6.18182V46.5536H7.18182V45.5536ZM7.18182 23.7355V22.7355H6.18182V23.7355H7.18182ZM29 23.7355L30 23.7355V22.7355L29 22.7355V23.7355ZM29 44.5536H7.18182V46.5536H29V44.5536ZM8.18182 45.5536L8.18182 23.7355H6.18182L6.18182 45.5536H8.18182ZM7.18182 24.7355H29V22.7355H7.18182V24.7355ZM28 23.7355V45.5536H30V23.7355L28 23.7355Z" fill="#1A1A1A" mask="url(#path-19-outside-10_105_1386)"/>
<mask id="path-21-outside-11_105_1386" maskUnits="userSpaceOnUse" x="27" y="22.3661" width="24" height="25" fill="black">
<rect fill="white" x="27" y="22.3661" width="24" height="25"/>
<path d="M50 45.5536H28.1818V23.7355H50V45.5536Z"/>
</mask>
<path d="M50 45.5536H28.1818V23.7355H50V45.5536Z" fill="#F5F5F5"/>
<path d="M50 45.5536V46.5536H51V45.5536H50ZM28.1818 45.5536H27.1818V46.5536H28.1818V45.5536ZM28.1818 23.7355V22.7355H27.1818V23.7355H28.1818ZM50 23.7355L51 23.7355V22.7355L50 22.7355V23.7355ZM50 44.5536H28.1818V46.5536H50V44.5536ZM29.1818 45.5536V23.7355H27.1818V45.5536H29.1818ZM28.1818 24.7355H50V22.7355H28.1818V24.7355ZM49 23.7355V45.5536H51V23.7355L49 23.7355Z" fill="#1A1A1A" mask="url(#path-21-outside-11_105_1386)"/>
<mask id="path-23-outside-12_105_1386" maskUnits="userSpaceOnUse" x="48" y="22.3661" width="24" height="25" fill="black">
<rect fill="white" x="48" y="22.3661" width="24" height="25"/>
<path d="M71 45.5536H49.1818V23.7355H71V45.5536Z"/>
</mask>
<path d="M71 45.5536H49.1818V23.7355H71V45.5536Z" fill="#F5F5F5"/>
<path d="M71 45.5536V46.5536H72V45.5536H71ZM49.1818 45.5536H48.1818V46.5536H49.1818V45.5536ZM49.1818 23.7355V22.7355H48.1818V23.7355H49.1818ZM71 23.7355L72 23.7355V22.7355L71 22.7355V23.7355ZM71 44.5536H49.1818V46.5536H71V44.5536ZM50.1818 45.5536V23.7355H48.1818V45.5536H50.1818ZM49.1818 24.7355H71V22.7355H49.1818V24.7355ZM70 23.7355V45.5536H72V23.7355L70 23.7355Z" fill="#1A1A1A" mask="url(#path-23-outside-12_105_1386)"/>
<path d="M29 25.5536H7.18182L7.18182 3.73547H29V25.5536Z" fill="#F5F5F5"/>
<path d="M50 25.5536H28.1818V3.73547H50V25.5536Z" fill="#F5F5F5"/>
<path d="M71 25.5536H49.1818V3.73547H71V25.5536Z" fill="#F5F5F5"/>
<path d="M29 45.5536H7.18182L7.18182 23.7355H29V45.5536Z" fill="#F5F5F5"/>
<path d="M50 45.5536H28.1818V23.7355H50V45.5536Z" fill="#F5F5F5"/>
<path d="M71 45.5536H49.1818V23.7355H71V45.5536Z" fill="#F5F5F5"/>
</svg>
