<svg width="46" height="23" viewBox="0 0 46 23" fill="none" xmlns="http://www.w3.org/2000/svg">
<path d="M25.024 13.122C21.408 13.122 18.816 11.634 18.816 9.39403C18.816 7.13803 21.36 5.65003 25.024 5.65003C28.64 5.65003 31.232 7.12204 31.232 9.39403C31.232 11.458 28.336 13.122 25.024 13.122Z" fill="#F5F5F5"/>
<path d="M25.39 18.896C23.13 18.896 21.51 17.966 21.51 16.566C21.51 15.156 23.1 14.226 25.39 14.226C27.65 14.226 29.27 15.146 29.27 16.566C29.27 17.856 27.46 18.896 25.39 18.896Z" fill="#F5F5F5"/>
<path d="M23.6676 6.39626H26.6364V18.4872H23.6676V6.39626Z" fill="#F5F5F5"/>
</svg>
